inDegrees=no
num_controls=7
num_derivatives=13
num_iterations=98
num_multipliers=7
num_parameters=0
num_slacks=7
num_states=26
objective=0.445709
objective_accelerations=0.057226
objective_balance=0.003401
objective_effort=0.022746
objective_height=0.356795
objective_ligament=0.005541
solver_duration=1331.359799
status=Solve_Succeeded
success=true
DataType=double
version=3
OpenSimVersion=4.5
endheader
time	/jointset/ground_pelvis/pelvis_tilt/value	/jointset/ground_pelvis/pelvis_tx/value	/jointset/ground_pelvis/pelvis_ty/value	/jointset/hip_l/hip_flexion_l/value	/jointset/hip_l/hip_adduction_l/value	/jointset/hip_l/hip_rotation_l/value	/jointset/back/lumbar_extension/value	/jointset/patellofemoral_l/patellar_flexion_l/value	/jointset/knee_l/knee_flexion_l/value	/jointset/knee_l/knee_adduction_l/value	/jointset/knee_l/knee_rotation_l/value	/jointset/ankle_l/ankle_angle_l/value	/jointset/subtalar_l/subtalar_angle_l/value	/jointset/ground_pelvis/pelvis_tilt/speed	/jointset/ground_pelvis/pelvis_tx/speed	/jointset/ground_pelvis/pelvis_ty/speed	/jointset/hip_l/hip_flexion_l/speed	/jointset/hip_l/hip_adduction_l/speed	/jointset/hip_l/hip_rotation_l/speed	/jointset/back/lumbar_extension/speed	/jointset/patellofemoral_l/patellar_flexion_l/speed	/jointset/knee_l/knee_flexion_l/speed	/jointset/knee_l/knee_adduction_l/speed	/jointset/knee_l/knee_rotation_l/speed	/jointset/ankle_l/ankle_angle_l/speed	/jointset/subtalar_l/subtalar_angle_l/speed	/forceset/tau_hip_flexion_l	/forceset/tau_hip_adduction_l	/forceset/tau_hip_rotation_l	/forceset/tau_knee_flexion_l	/forceset/tau_ankle_angle_l	/forceset/tau_subtalar_angle_l	/forceset/tau_lumbar_extension	lambda_cid13_p0	lambda_cid13_p1	lambda_cid13_p2	lambda_cid13_p3	lambda_cid13_p4	lambda_cid13_p5	lambda_cid14_p0	/jointset/ground_pelvis/pelvis_tilt/accel	/jointset/ground_pelvis/pelvis_tx/accel	/jointset/ground_pelvis/pelvis_ty/accel	/jointset/hip_l/hip_flexion_l/accel	/jointset/hip_l/hip_adduction_l/accel	/jointset/hip_l/hip_rotation_l/accel	/jointset/back/lumbar_extension/accel	/jointset/patellofemoral_l/patellar_flexion_l/accel	/jointset/knee_l/knee_flexion_l/accel	/jointset/knee_l/knee_adduction_l/accel	/jointset/knee_l/knee_rotation_l/accel	/jointset/ankle_l/ankle_angle_l/accel	/jointset/subtalar_l/subtalar_angle_l/accel	gamma_cid13_p0	gamma_cid13_p1	gamma_cid13_p2	gamma_cid13_p3	gamma_cid13_p4	gamma_cid13_p5	gamma_cid14_p0
0	-0.03880194874832183	0.0685938594985545	0.8959217058274352	0.1955287580552426	-0.3223099934169446	-0.4773211652740224	-0.1379045077516729	0.07015288079084908	0.07015288079084844	-0.1745323934873355	-0.112090996715781	-0.06701059314715049	0.003424611179349751	0	0	0	0	0	0	0	0	0	0	0	0	0	0.1090487032787333	-0.1012376681618974	-0.03030420869097046	-0.242595001330507	0.2065748560311944	-0.01649454177445431	-0.05273807209718065	30.67751249218833	-0.8313277964300494	2.793283812938359	-4.839175040316706	-515.630900121603	-79.41084842274742	-39.76416505908693	-4.397039456087874	-1.729255046223371	-0.9650444893891483	12.38157481569977	-2.107254595152868	3.311544858561305	-2.762712901707114	10.2938046703021	10.29380467030139	0.6741187027575698	-0.8713074442994957	2.515937866695015	-0.9430672056458688	-2.848180658930138e-08	1.127016309375939e-07	1.210147613915964e-07	1.299066784133913e-08	-2.19201757101384e-08	-4.6994669498003e-08	-6.588364340378872e-09
0.01	-0.03901167122152338	0.06850868702049034	0.895874861570866	0.1961273842628977	-0.3224137542386836	-0.4771547688070215	-0.1380485223867201	0.07065303750160734	0.07065303750160867	-0.174502133156443	-0.1121282943968393	-0.06688949283234272	0.003376616405885437	-0.04174331226293838	-0.0169467028167266	-0.009338162485182185	0.1191755646249826	-0.02065142354589287	0.03314538093716935	-0.02855432066371379	0.0995943408315017	0.09959434083150197	0.006033453531128878	-0.007412667717138842	0.02413230564687173	-0.009537391349195521	0.1048494110961234	-0.1033320741841506	-0.02950308924262313	-0.2376114343637434	0.1982949035005529	-0.01097971373181221	-0.04913578442657841	28.19842419498123	-2.731911019335205	3.027255465727093	-4.187876465576252	-516.4760868440327	-83.46900166912525	-39.77435155913249	-4.032810611669155	-1.664206381832082	-0.9136031878453158	11.60308441839317	-2.029006004003135	3.295934282751082	-2.864500696879619	9.726699909248627	9.726699909249071	0.5652002462442375	-0.6692041664682319	2.348714728989756	-0.9498722892936934	-6.796631781705472e-08	1.489327232146517e-07	2.00602231164255e-07	4.876974618640765e-08	-2.424451684598346e-07	-9.776161244239265e-08	-1.207722105373694e-08
0.02	-0.03963279351740747	0.06825668181777195	0.8957355554774927	0.197901273543303	-0.3227210132498199	-0.4766609386163546	-0.138470622038038	0.07213602784461436	0.07213602784461368	-0.1744120899765394	-0.1122383103012776	-0.06652970189800451	0.003235088280981707	-0.08227996453676592	-0.03336654493084951	-0.01849236736083231	0.2350526145497949	-0.04069963787961052	0.06548674473259143	-0.05561700325447057	0.1965667264499804	0.1965667264499827	0.01195656978039795	-0.01454364467616414	0.04773812390600286	-0.01870667028788712	0.1006501189135042	-0.1054264802064198	-0.02870196979427773	-0.2326278673969997	0.1900149509698965	-0.005464885689195615	-0.04553349675596126	25.78265353728901	-4.645528949055361	3.265531825486837	-3.703778651095142	-516.3990224615839	-87.36555650394178	-39.80433441501771	-4.155707458265727	-1.623882905702624	-0.9282529674827446	11.7218718756657	-1.986612752717912	3.150741430211847	-2.464385287115715	9.769413627697494	9.769413627697142	0.6520512463854187	-0.8149692926767939	2.410640389146878	-0.8694447235451884	-1.074508290448081e-07	1.851638154917095e-07	2.801897009369135e-07	8.454882453147616e-08	-4.629701612095308e-07	-1.485285553867823e-07	-1.7566077767095e-08
0.03	-0.04065402913756227	0.06784321908452071	0.8955053218948916	0.2008185940886748	-0.3232255966698934	-0.4758479249242507	-0.1391553643026467	0.07457616154252028	0.07457616154251695	-0.1742631269465354	-0.1124185927898559	-0.06593619368933222	0.003004003486814701	-0.1217810964663316	-0.04922477570838842	-0.02754521186573669	0.3478675059851446	-0.06010312498561192	0.0969830145380523	-0.08109521556760171	0.2910110691621046	0.2910110691620978	0.01781269040216833	-0.02145784536334391	0.07088132916037022	-0.02743319831136528	0.09671763663321088	-0.1023530623351999	-0.02810539008138763	-0.2293964576390593	0.186738622729389	-0.005341554967077773	-0.04218932961844008	24.76804152976507	-4.587412338686997	3.331621986112673	-3.64416527388019	-516.3557107855074	-86.64291376589235	-39.85289601863529	-3.819419043035379	-1.551592207831954	-0.8925230829982388	10.97967950435684	-1.90018061947959	3.129086881421581	-2.554104088461846	9.21460653304249	9.214606533041316	0.5489547734911382	-0.6213609688808178	2.25383106305017	-0.8627540381727481	-1.3798977481386e-07	1.958082062856189e-07	3.400949716263857e-07	1.120132510461894e-07	-6.350341725624218e-07	-1.907318075843505e-07	-2.286963341001547e-08
0.04	-0.04206469667355856	0.06727421423468351	0.8951848152890409	0.2048477398937761	-0.323920807747015	-0.4747239451089507	-0.1400878016673968	0.07794727105555983	0.0779472710555601	-0.1740562902496234	-0.1126663603877387	-0.0651137193342225	0.002687953973128192	-0.1601663477052377	-0.06447496824804183	-0.03654697201074717	0.4574176664959801	-0.07882516928915013	0.1276799693718482	-0.1051560232827327	0.3827618894771341	0.3827618894771196	0.02353130316066808	-0.0280406665362141	0.09353135319347768	-0.03569961419179014	0.09278515435290778	-0.09927964446397758	-0.02750881036847319	-0.2261650478811142	0.1834622944888876	-0.005218224244954196	-0.03884516248093593	23.81145839290786	-4.540233505633229	3.400344701793847	-3.741226859411689	-515.4722888638452	-85.76765707682404	-39.91850065471097	-3.932531320133828	-1.502275258125533	-0.9180360955039673	11.06892569076285	-1.850324192225297	2.990878435878841	-2.1809043675157	9.230709148278537	9.230709148278477	0.624549673731241	-0.7486933898148808	2.312004144894877	-0.7774222949345663	-1.68344275934279e-07	2.059250362242056e-07	3.995944237780603e-07	1.393062414406891e-07	-8.060989884225953e-07	-2.327584888386853e-07	-2.816936841230836e-08
0.05	-0.04385412703172376	0.06655549654028034	0.8947742774299711	0.2099575112137773	-0.3247997407187299	-0.4732973206098942	-0.1412531231324542	0.0822232878823963	0.08222328788239595	-0.1737926403975809	-0.1129789635706669	-0.06406718638670857	0.002291641016268196	-0.1975109175635241	-0.07918888081220077	-0.04556860424853945	0.5640059306908406	-0.09683431192288926	0.1575149925928314	-0.1276815239827202	0.4719888970007558	0.4719888970007122	0.02917895663398966	-0.03442350754312853	0.1156621890337677	-0.04348992235838406	0.08748923563349194	-0.09498172678694206	-0.02657509933496359	-0.2211070902405322	0.1772131477453247	-0.004870692850676874	-0.03459723808208608	21.89594814513859	-4.463674424354967	3.511386508483026	-2.960332039862856	-514.6555970703616	-84.8488951307598	-39.99921854356652	-3.604110317808934	-1.443967700742613	-0.8955900568565308	10.37415224421989	-1.757205277523963	2.960269329866811	-2.254361059334928	8.700815397706325	8.70081539770195	0.5319979370313687	-0.5745584050392076	2.146662135882986	-0.7689538583146872	-1.858165515664714e-07	2.075965227192739e-07	4.344957830534325e-07	1.562389655999101e-07	-9.114402416048639e-07	-2.572312850503185e-07	-3.097744032189849e-08
0.06	-0.04601074118829772	0.06569203603119921	0.8942732505947354	0.2161172402678002	-0.3258549643124972	-0.471576254865695	-0.1426368972321303	0.08737799855312933	0.08737799855312749	-0.1734730890602184	-0.1133536909534454	-0.06280273731433421	0.001819601221583681	-0.2336031073871263	-0.09342353118363265	-0.05464476724388479	0.6674092133005898	-0.1140832936996589	0.1865682184001643	-0.1488465502064925	0.5585006582564719	0.5585006582563974	0.03471160022325911	-0.04046550650642285	0.1371145781655342	-0.050844981756695	0.08219331691405705	-0.09068380910991024	-0.02564138830145988	-0.2160491325999555	0.1709640010017592	-0.004523161456404907	-0.03034931368324886	20.03279778589711	-4.395246986005855	3.62254180384837	-2.321151689338543	-513.081985361364	-83.78901491724966	-40.09290046056301	-3.682055313196991	-1.406422819580137	-0.9289422470145815	10.43192937374059	-1.698292020831414	2.834518953148761	-1.908809472272658	8.687659894697434	8.68765989469701	0.6015476969207895	-0.680524981090865	2.176314803190164	-0.6903725412779979	-2.027464177044225e-07	2.089124158061941e-07	4.683614331550656e-07	1.727354680229088e-07	-1.014014186884905e-06	-2.809649703127852e-07	-3.368060010126957e-08
